<mxfile host="app.diagrams.net" agent="Mozilla/5.0 (Windows NT 10.0; Win64; x64) AppleWebKit/537.36 (KHTML, like Gecko) Chrome/130.0.0.0 Safari/537.36" version="24.8.3">
  <diagram name="Page-1" id="DLblIMfDoTLkKbm2SkzB">
    <mxGraphModel dx="1723" dy="720" grid="1" gridSize="10" guides="1" tooltips="1" connect="1" arrows="1" fold="1" page="1" pageScale="1" pageWidth="850" pageHeight="1100" math="0" shadow="0">
      <root>
        <mxCell id="0" />
        <mxCell id="1" parent="0" />
        <mxCell id="AKLukmX9ce5BL_95IOcz-1" value="manager" style="shape=umlActor;verticalLabelPosition=bottom;verticalAlign=top;html=1;outlineConnect=0;" vertex="1" parent="1">
          <mxGeometry x="190" y="110" width="30" height="60" as="geometry" />
        </mxCell>
        <mxCell id="AKLukmX9ce5BL_95IOcz-2" value="system" style="rounded=0;whiteSpace=wrap;html=1;" vertex="1" parent="1">
          <mxGeometry x="480" y="140" width="100" height="30" as="geometry" />
        </mxCell>
        <mxCell id="AKLukmX9ce5BL_95IOcz-3" value="" style="endArrow=none;dashed=1;html=1;rounded=0;" edge="1" parent="1">
          <mxGeometry width="50" height="50" relative="1" as="geometry">
            <mxPoint x="200" y="420" as="sourcePoint" />
            <mxPoint x="200" y="200" as="targetPoint" />
          </mxGeometry>
        </mxCell>
        <mxCell id="AKLukmX9ce5BL_95IOcz-6" value="" style="endArrow=none;dashed=1;html=1;rounded=0;" edge="1" parent="1" source="AKLukmX9ce5BL_95IOcz-17">
          <mxGeometry width="50" height="50" relative="1" as="geometry">
            <mxPoint x="530" y="430" as="sourcePoint" />
            <mxPoint x="529.5" y="170" as="targetPoint" />
          </mxGeometry>
        </mxCell>
        <mxCell id="AKLukmX9ce5BL_95IOcz-7" value="" style="endArrow=classic;html=1;rounded=0;" edge="1" parent="1">
          <mxGeometry width="50" height="50" relative="1" as="geometry">
            <mxPoint x="200" y="250" as="sourcePoint" />
            <mxPoint x="520" y="250" as="targetPoint" />
          </mxGeometry>
        </mxCell>
        <mxCell id="AKLukmX9ce5BL_95IOcz-8" value="1. click booking list" style="text;html=1;align=center;verticalAlign=middle;whiteSpace=wrap;rounded=0;" vertex="1" parent="1">
          <mxGeometry x="270" y="224" width="190" height="30" as="geometry" />
        </mxCell>
        <mxCell id="AKLukmX9ce5BL_95IOcz-10" value="" style="html=1;labelBackgroundColor=#ffffff;startArrow=none;startFill=0;startSize=6;endArrow=classic;endFill=1;endSize=6;jettySize=auto;orthogonalLoop=1;strokeWidth=1;dashed=1;fontSize=14;rounded=0;" edge="1" parent="1">
          <mxGeometry width="60" height="60" relative="1" as="geometry">
            <mxPoint x="520" y="260" as="sourcePoint" />
            <mxPoint x="200" y="260" as="targetPoint" />
          </mxGeometry>
        </mxCell>
        <mxCell id="AKLukmX9ce5BL_95IOcz-11" value="2. display list of booking&amp;nbsp;" style="text;html=1;align=center;verticalAlign=middle;whiteSpace=wrap;rounded=0;" vertex="1" parent="1">
          <mxGeometry x="270" y="257" width="190" height="30" as="geometry" />
        </mxCell>
        <mxCell id="AKLukmX9ce5BL_95IOcz-12" value="" style="endArrow=classic;html=1;rounded=0;" edge="1" parent="1">
          <mxGeometry width="50" height="50" relative="1" as="geometry">
            <mxPoint x="200" y="340" as="sourcePoint" />
            <mxPoint x="520" y="340" as="targetPoint" />
          </mxGeometry>
        </mxCell>
        <mxCell id="AKLukmX9ce5BL_95IOcz-13" value="3. view booking confirmation&amp;nbsp;" style="text;html=1;align=center;verticalAlign=middle;whiteSpace=wrap;rounded=0;" vertex="1" parent="1">
          <mxGeometry x="225" y="314" width="280" height="30" as="geometry" />
        </mxCell>
        <mxCell id="AKLukmX9ce5BL_95IOcz-15" value="" style="html=1;labelBackgroundColor=#ffffff;startArrow=none;startFill=0;startSize=6;endArrow=classic;endFill=1;endSize=6;jettySize=auto;orthogonalLoop=1;strokeWidth=1;dashed=1;fontSize=14;rounded=0;" edge="1" parent="1">
          <mxGeometry width="60" height="60" relative="1" as="geometry">
            <mxPoint x="520" y="350" as="sourcePoint" />
            <mxPoint x="200" y="350" as="targetPoint" />
          </mxGeometry>
        </mxCell>
        <mxCell id="AKLukmX9ce5BL_95IOcz-16" value="4. display booking confirmation details (date, time, approval, reason)&amp;nbsp;&amp;nbsp;" style="text;html=1;align=center;verticalAlign=middle;whiteSpace=wrap;rounded=0;" vertex="1" parent="1">
          <mxGeometry x="225" y="350" width="280" height="30" as="geometry" />
        </mxCell>
        <mxCell id="AKLukmX9ce5BL_95IOcz-18" value="" style="endArrow=none;dashed=1;html=1;rounded=0;" edge="1" parent="1" source="AKLukmX9ce5BL_95IOcz-19" target="AKLukmX9ce5BL_95IOcz-17">
          <mxGeometry width="50" height="50" relative="1" as="geometry">
            <mxPoint x="530" y="430" as="sourcePoint" />
            <mxPoint x="529.5" y="170" as="targetPoint" />
          </mxGeometry>
        </mxCell>
        <mxCell id="AKLukmX9ce5BL_95IOcz-17" value="" style="rounded=0;whiteSpace=wrap;html=1;rotation=90;" vertex="1" parent="1">
          <mxGeometry x="520" y="250" width="20" height="10" as="geometry" />
        </mxCell>
        <mxCell id="AKLukmX9ce5BL_95IOcz-20" value="" style="endArrow=none;dashed=1;html=1;rounded=0;" edge="1" parent="1" target="AKLukmX9ce5BL_95IOcz-19">
          <mxGeometry width="50" height="50" relative="1" as="geometry">
            <mxPoint x="530" y="430" as="sourcePoint" />
            <mxPoint x="530" y="265" as="targetPoint" />
          </mxGeometry>
        </mxCell>
        <mxCell id="AKLukmX9ce5BL_95IOcz-19" value="" style="rounded=0;whiteSpace=wrap;html=1;rotation=90;" vertex="1" parent="1">
          <mxGeometry x="520" y="340" width="20" height="10" as="geometry" />
        </mxCell>
        <mxCell id="AKLukmX9ce5BL_95IOcz-21" value="" style="swimlane;startSize=0;" vertex="1" parent="1">
          <mxGeometry x="50" y="60" width="610" height="430" as="geometry" />
        </mxCell>
        <mxCell id="AKLukmX9ce5BL_95IOcz-24" value="" style="endArrow=none;html=1;rounded=0;" edge="1" parent="AKLukmX9ce5BL_95IOcz-21">
          <mxGeometry width="50" height="50" relative="1" as="geometry">
            <mxPoint x="210" y="20" as="sourcePoint" />
            <mxPoint x="210" y="10" as="targetPoint" />
          </mxGeometry>
        </mxCell>
        <mxCell id="AKLukmX9ce5BL_95IOcz-25" value="" style="endArrow=none;html=1;rounded=0;" edge="1" parent="AKLukmX9ce5BL_95IOcz-21">
          <mxGeometry width="50" height="50" relative="1" as="geometry">
            <mxPoint x="200" as="sourcePoint" />
            <mxPoint x="210" y="10" as="targetPoint" />
          </mxGeometry>
        </mxCell>
        <mxCell id="AKLukmX9ce5BL_95IOcz-27" value="&lt;span style=&quot;white-space: pre;&quot;&gt;&#x9;&lt;/span&gt;SSD 017 View Booking Confirmation" style="text;html=1;align=center;verticalAlign=middle;whiteSpace=wrap;rounded=0;" vertex="1" parent="AKLukmX9ce5BL_95IOcz-21">
          <mxGeometry x="-30" y="-5" width="240" height="30" as="geometry" />
        </mxCell>
        <mxCell id="AKLukmX9ce5BL_95IOcz-23" value="" style="endArrow=none;html=1;rounded=0;entryX=1.003;entryY=0.854;entryDx=0;entryDy=0;entryPerimeter=0;" edge="1" parent="AKLukmX9ce5BL_95IOcz-21" target="AKLukmX9ce5BL_95IOcz-27">
          <mxGeometry width="50" height="50" relative="1" as="geometry">
            <mxPoint y="20" as="sourcePoint" />
            <mxPoint x="100" y="20" as="targetPoint" />
          </mxGeometry>
        </mxCell>
      </root>
    </mxGraphModel>
  </diagram>
</mxfile>
